# xmcd CD database file
#
# Track frame offsets:
#	187
#	21492
#	35317
#	57000
#	87790
#	112925
#	145742
#	170912
#	190860
#	213775
#
# Disc length: 3025 seconds
#
# Revision: 0
# Processed by: cddbd v1.5PL3 Copyright (c) Steve Scherf et al.
# Submitted via: CDex 1.51
#
DISCID=800bcf0a
DTITLE=益田宏美 - 誕生
DYEAR=1989
DGENRE=Pop
TTITLE0=夜空で星が生まれるように−プロローグ−
TTITLE1=神様　見てよ
TTITLE2=ブラームスで子守歌
TTITLE3=初めてのダンス
TTITLE4=1mmの幸せ
TTITLE5=アンダンテ・カンタービレ
TTITLE6=子供の情景
TTITLE7=夢のあとに
TTITLE8=聖母たちのララバイ
TTITLE9=夜空で星が生まれるように−エピローグ−
EXTD=YEAR: 1989
EXTT0=
EXTT1=
EXTT2=
EXTT3=
EXTT4=
EXTT5=
EXTT6=
EXTT7=
EXTT8=
EXTT9=
PLAYORDER=
